<svg width="1440" height="900" viewBox="0 0 1440 900" fill="none" xmlns="http://www.w3.org/2000/svg">
<g opacity="0.15">
<mask id="mask0_18_1889" style="mask-type:luminance" maskUnits="userSpaceOnUse" x="6" y="-265" width="1429" height="1431">
<path d="M1434.9 -264.031H6.09717V1165.04H1434.9V-264.031Z" fill="white"/>
</mask>
<g mask="url(#mask0_18_1889)">
<g opacity="0.2">
<path d="M1376.16 -275.785H1378.57V450.506C1378.57 479.969 1378.99 510.086 1379.39 539.216C1380.54 621.149 1381.72 705.87 1373.83 788.196C1372.95 797.438 1372.02 806.679 1371.11 815.908C1365.55 871.833 1359.8 929.651 1362.26 987.028C1363.46 1014.91 1366.89 1042.98 1370.2 1070.12C1374.45 1104.87 1378.85 1140.81 1378.6 1176.76H1376.18C1376.43 1140.94 1372.05 1105.08 1367.8 1070.4C1364.47 1043.21 1361.03 1015.11 1359.83 987.123C1357.35 929.567 1363.12 871.654 1368.69 815.658C1369.61 806.429 1370.52 797.187 1371.42 787.946C1379.27 705.75 1378.11 621.102 1376.96 539.228C1376.56 510.098 1376.14 479.969 1376.14 450.482V-275.785H1376.16Z" fill="black"/>
<path d="M1306.99 -275.785H1309.41V450.506C1309.41 474.955 1309.81 499.952 1310.2 524.139C1311.68 615.433 1313.2 709.823 1293.71 800.129C1290.31 815.908 1286.26 831.83 1281.96 848.682C1267.46 905.654 1252.47 964.568 1262.48 1019.86C1266.86 1044.08 1275.95 1066.56 1284.74 1088.28C1295.9 1115.89 1307.44 1144.45 1309.37 1176.75L1306.95 1176.89C1305.05 1144.99 1293.58 1116.62 1282.48 1089.18C1273.65 1067.34 1264.52 1044.75 1260.09 1020.29C1249.98 964.484 1265.04 905.309 1279.6 848.086C1283.89 831.259 1287.93 815.36 1291.33 799.617C1310.76 709.585 1309.24 615.326 1307.76 524.175C1307.37 499.988 1306.96 474.967 1306.96 450.506V-275.785H1306.99Z" fill="black"/>
<path d="M1237.84 -275.785H1240.25V610.193C1240.25 618.958 1240.36 627.902 1240.48 636.56C1240.72 655.971 1240.98 676.05 1239.99 695.664C1238.05 734.118 1226.9 772 1216.12 808.644L1215.83 809.597C1211.24 825.221 1206.33 841.048 1201.59 856.339C1193.79 881.539 1185.72 907.583 1178.77 933.485C1178.11 935.927 1177.43 938.404 1176.75 940.917C1167.5 974.976 1157.01 1013.57 1167.86 1047.11C1174.25 1066.89 1187.31 1081.56 1201.15 1097.09L1203.91 1100.2C1223.14 1121.89 1236.68 1143.19 1240.2 1176.69L1237.8 1176.94C1234.35 1144.07 1221.03 1123.14 1202.1 1101.79L1199.34 1098.69C1185.96 1083.65 1172.11 1068.09 1165.55 1047.84C1154.48 1013.61 1165.07 974.643 1174.41 940.262C1175.09 937.761 1175.77 935.284 1176.42 932.842C1183.39 906.905 1191.46 880.824 1199.27 855.613C1204.01 840.322 1208.9 824.507 1213.5 808.906L1213.78 807.953C1224.54 771.452 1235.64 733.701 1237.56 695.533C1238.55 675.99 1238.29 655.959 1238.05 636.571C1237.94 627.914 1237.82 618.958 1237.82 610.181V-275.785H1237.84Z" fill="black"/>
<path d="M1168.66 -275.773L1171.07 -275.75C1169.8 -114.633 1170.23 49.2695 1170.66 207.778C1170.87 287.341 1171.09 369.608 1171.09 450.494V610.193C1171.09 618.946 1171.19 627.89 1171.31 636.547C1171.55 655.959 1171.81 676.038 1170.82 695.664C1168.88 734.094 1157.79 771.952 1147.05 808.572L1146.78 809.465C1142.21 825.054 1137.34 840.846 1132.63 856.113C1124.86 881.265 1116.85 907.274 1109.93 933.128C1109.29 935.557 1108.62 938.023 1107.94 940.512C1098.73 974.547 1088.29 1013.12 1099.09 1046.69C1105.46 1066.5 1118.45 1081.26 1132.21 1096.9L1134.95 1100.01C1154.07 1121.81 1167.53 1143.2 1171.05 1176.7L1168.64 1176.95C1165.19 1144.1 1151.95 1123.06 1133.14 1101.6L1130.4 1098.5C1117.09 1083.36 1103.31 1067.71 1096.79 1047.43C1085.77 1013.17 1096.31 974.226 1105.61 939.869C1106.29 937.38 1106.94 934.914 1107.6 932.497C1114.52 906.595 1122.55 880.574 1130.32 855.398C1135.02 840.143 1139.89 824.364 1144.46 808.787L1144.72 807.894C1155.42 771.405 1166.49 733.677 1168.41 695.544C1169.39 676.002 1169.14 655.959 1168.89 636.583C1168.79 627.925 1168.67 618.97 1168.67 610.205V450.518C1168.67 369.632 1168.45 287.365 1168.24 207.801C1167.81 49.2814 1167.38 -114.633 1168.66 -275.762V-275.773Z" fill="black"/>
<path d="M1101.93 -275.797C1102.25 -241.368 1105.65 -206.642 1108.93 -173.059C1111.5 -146.716 1114.16 -119.48 1115.34 -92.5185C1117.73 -37.3324 1113.35 18.6277 1109.11 72.742C1108.15 85.1035 1107.15 97.8699 1106.24 110.434C1100.09 195.952 1100.8 283.4 1101.5 367.965C1101.73 395.034 1101.96 423.02 1101.96 450.506C1101.96 475.038 1102.36 500.142 1102.75 524.413C1104.23 615.516 1105.75 709.716 1086.52 799.843C1083.17 815.575 1079.19 831.414 1074.97 848.182C1060.71 904.999 1045.96 963.758 1055.77 1019.07C1060.08 1043.37 1069.03 1066 1077.69 1087.86C1088.69 1115.66 1100.06 1144.4 1101.94 1176.75L1099.53 1176.89C1097.68 1144.94 1086.37 1116.38 1075.44 1088.75C1066.74 1066.77 1057.75 1044.04 1053.39 1019.49C1043.49 963.663 1058.31 904.654 1072.63 847.586C1076.83 830.842 1080.81 815.015 1084.15 799.331C1103.32 709.478 1101.81 615.421 1100.34 524.449C1099.94 500.166 1099.54 475.05 1099.54 450.494C1099.54 423.02 1099.31 395.034 1099.09 367.977C1098.4 283.364 1097.67 195.869 1103.84 110.255C1104.74 97.6913 1105.74 84.913 1106.71 72.5515C1110.94 18.5087 1115.31 -37.38 1112.93 -92.4113C1111.77 -119.314 1109.11 -146.514 1106.54 -172.821C1103.25 -206.463 1099.86 -241.237 1099.53 -275.773L1101.94 -275.797H1101.93Z" fill="black"/>
<path d="M1032.8 -275.869C1033.99 -245.251 1040.5 -215.335 1046.79 -186.397C1051.74 -163.639 1056.86 -140.095 1059.4 -116.253C1065.31 -60.8168 1056.9 -3.51093 1048.76 51.9133C1046.33 68.4191 1043.83 85.4966 1041.79 102.038C1030.57 193.011 1031.46 286.424 1032.31 376.778C1032.54 400.953 1032.78 425.962 1032.78 450.506C1032.78 480.124 1033.19 510.384 1033.6 539.656C1034.72 621.352 1035.87 705.834 1028.26 787.97C1027.43 796.878 1026.59 805.786 1025.73 814.682C1020.33 870.797 1014.76 928.817 1017.1 986.385C1018.23 1014.35 1021.55 1042.51 1024.75 1069.75C1028.86 1104.64 1033.11 1140.71 1032.82 1176.77L1030.41 1176.75C1030.69 1140.84 1026.45 1104.84 1022.36 1070.02C1019.14 1042.74 1015.83 1014.53 1014.69 986.468C1012.35 928.734 1017.93 870.63 1023.34 814.432C1024.19 805.536 1025.04 796.64 1025.87 787.732C1033.48 705.727 1032.32 621.316 1031.21 539.68C1030.8 510.408 1030.38 480.124 1030.38 450.494C1030.38 425.962 1030.15 400.965 1029.92 376.79C1029.06 286.365 1028.18 192.856 1039.41 101.74C1041.46 85.1631 1043.96 68.0738 1046.39 51.5561C1054.49 -3.71338 1062.89 -60.8763 1057.02 -116.003C1054.49 -139.714 1049.39 -163.186 1044.45 -185.885C1038.14 -214.919 1031.6 -244.941 1030.4 -275.773L1032.81 -275.869H1032.8Z" fill="black"/>
<path d="M963.623 -275.833C964.659 -246.596 972.982 -219.492 981.031 -193.28C987.413 -172.511 994.009 -151.051 997.045 -128.46C1004.68 -71.6777 993.962 -12.0854 983.591 45.5421C980.436 63.0721 977.173 81.1975 974.589 98.5607C960.944 190.212 962.016 284.745 963.052 376.17C963.326 400.56 963.611 425.771 963.611 450.506V1176.8H961.194V450.506C961.194 425.783 960.909 400.584 960.635 376.206C959.599 284.686 958.527 190.057 972.196 98.2154C974.792 80.8164 978.054 62.6671 981.21 45.1252C991.545 -12.3235 1002.24 -71.7135 994.64 -128.126C991.628 -150.503 985.067 -171.88 978.709 -192.554C970.613 -218.92 962.23 -246.18 961.194 -275.738L963.611 -275.821L963.623 -275.833Z" fill="black"/>
<path d="M894.481 -275.869C895.671 -245.215 902.149 -215.24 908.412 -186.266C913.341 -163.472 918.437 -139.892 920.961 -116.015C926.831 -60.5905 918.461 -3.32037 910.364 52.0681C907.959 68.5501 905.471 85.6038 903.435 102.121C892.266 193.046 893.147 286.412 894.005 376.718C894.231 400.917 894.469 425.938 894.469 450.506V1176.8H892.052V450.506C892.052 425.95 891.814 400.941 891.588 376.742C890.73 286.365 889.849 192.915 901.041 101.824C903.077 85.2703 905.566 68.2167 907.983 51.7109C916.056 -3.53476 924.402 -60.6501 918.568 -115.765C916.056 -139.511 910.972 -163.019 906.066 -185.754C899.779 -214.835 893.29 -244.905 892.088 -275.773L894.505 -275.869H894.481Z" fill="black"/>
<path d="M825.303 -275.785C825.613 -241.309 828.97 -206.523 832.209 -172.88C834.757 -146.502 837.376 -119.218 838.543 -92.2207C840.901 -37.0227 836.567 18.9613 832.364 73.0875C831.411 85.3656 830.423 98.0605 829.542 110.541C823.446 195.976 824.172 283.34 824.862 367.822C825.089 394.939 825.315 422.984 825.315 450.506V1176.8H822.898V450.506C822.898 422.984 822.672 394.951 822.445 367.846C821.755 283.316 821.04 195.916 827.137 110.374C828.03 97.8938 829.006 85.187 829.958 72.9088C834.15 18.8422 838.484 -37.0465 836.126 -92.1135C834.971 -119.052 832.352 -146.299 829.804 -172.642C826.553 -206.332 823.195 -241.166 822.886 -275.761L825.303 -275.785Z" fill="black"/>
<path d="M753.72 -275.773L756.137 -275.75C754.863 -114.633 755.303 49.2695 755.72 207.778C755.935 287.341 756.149 369.608 756.149 450.506V1176.8H753.732V450.506C753.732 369.62 753.517 287.353 753.303 207.79C752.886 49.2695 752.446 -114.645 753.72 -275.762V-275.773Z" fill="black"/>
<path d="M686.995 -275.785H684.578V1176.8H686.995V-275.785Z" fill="black"/>
<path d="M617.828 -275.785H615.411V1176.8H617.828V-275.785Z" fill="black"/>
<path d="M548.674 -275.785H546.257V1176.8H548.674V-275.785Z" fill="black"/>
<path d="M479.52 -275.785H477.103V1176.8H479.52V-275.785Z" fill="black"/>
<path d="M407.949 -275.785H410.366V118.032C410.366 129.917 410.282 142.005 410.211 153.687C409.913 197.619 409.616 243.04 413.533 287.496C414.426 297.643 415.402 307.932 416.331 317.876C419.998 356.711 423.785 396.88 423.785 436.918C423.785 481.481 420.082 526.461 416.51 569.953C415.509 582.112 414.474 594.688 413.533 607.073C409.901 654.923 410.092 703.69 410.282 750.85C410.33 761.556 410.366 772.262 410.366 782.968V1176.79H407.949V782.968C407.949 772.262 407.901 761.556 407.865 750.85C407.675 703.643 407.484 654.828 411.116 606.882C412.057 594.485 413.092 581.909 414.093 569.738C417.665 526.295 421.368 481.362 421.368 436.894C421.368 396.963 417.581 356.854 413.926 318.078C412.985 308.134 412.021 297.845 411.116 287.687C407.187 243.112 407.484 197.631 407.782 153.652C407.865 141.969 407.937 129.881 407.937 118.008V-275.785H407.949Z" fill="black"/>
<path d="M338.783 -275.785H341.2V118.032C341.2 127.154 341.093 136.419 340.986 145.387C340.462 189.664 339.926 235.442 352.392 279.1C355.25 289.092 358.405 299.096 361.453 308.766C371.991 342.17 381.933 373.717 382.052 409.158C382.195 456.008 372.205 503.227 362.549 548.898C359.06 565.38 355.464 582.421 352.428 599.034C341.212 660.532 341.212 720.006 341.212 782.968V1176.79H338.795V782.968C338.795 719.898 338.795 660.318 350.047 598.594C353.083 581.933 356.691 564.88 360.179 548.386C369.812 502.846 379.778 455.746 379.635 409.158C379.528 374.086 369.633 342.706 359.155 309.492C356.095 299.81 352.94 289.795 350.082 279.767C337.521 235.764 338.057 189.807 338.581 145.363C338.688 136.407 338.795 127.13 338.795 118.032V-275.785H338.783Z" fill="black"/>
<path d="M269.629 -275.785H272.046V118.032C272.046 127.559 271.796 137.372 271.557 146.863C270.486 189.557 269.367 233.703 289.644 272.289C294.252 281.042 299.229 289.497 304.051 297.667C320.244 325.152 335.556 351.114 335.854 385.9C336.294 436.275 320.756 487.495 305.73 537.024C299.907 556.222 294.406 574.347 289.739 592.532C273.367 656.388 272.034 716.552 272.034 782.968V1176.79H269.617V782.968C269.617 716.385 270.95 656.055 287.393 591.925C292.073 573.692 297.836 554.685 303.408 536.31C318.387 486.947 333.865 435.906 333.425 385.9C333.127 351.757 317.982 326.069 301.955 298.869C297.121 290.676 292.132 282.197 287.5 273.384C266.926 234.239 268.045 189.771 269.128 146.768C269.367 137.289 269.617 127.499 269.617 117.996V-275.785H269.629Z" fill="black"/>
<path d="M200.474 -275.785H202.891V118.032C202.891 127.583 202.641 137.42 202.391 146.935C201.296 189.617 200.165 233.739 220.573 272.205C225.204 280.934 230.217 289.366 235.063 297.5C251.352 324.878 266.735 350.745 267.045 385.566C267.497 436.013 251.864 487.305 236.754 536.905C230.908 556.114 225.371 574.264 220.692 592.461C204.249 656.328 202.903 716.528 202.903 782.98V1176.8H200.486V782.98C200.486 716.361 201.832 655.995 218.346 591.853C223.049 573.597 228.836 554.59 234.444 536.191C249.506 486.769 265.08 435.655 264.628 385.578C264.33 351.411 249.101 325.819 232.991 298.738C228.134 290.569 223.109 282.125 218.441 273.336C197.736 234.311 198.879 189.855 199.986 146.863C200.224 137.36 200.486 127.547 200.486 118.032V-275.785H200.474Z" fill="black"/>
<path d="M131.32 -275.785H133.737V118.032C133.737 127.142 133.63 136.407 133.523 145.375C132.987 189.605 132.44 235.347 145.12 278.898C148.026 288.866 151.228 298.822 154.324 308.456C165.016 341.706 175.125 373.098 175.232 408.491C175.387 455.424 165.243 502.751 155.431 548.517C151.883 565.058 148.216 582.171 145.144 598.844C133.737 660.651 133.737 720.065 133.737 782.968V1176.79H131.32V782.968C131.32 719.946 131.32 660.425 142.775 598.403C145.858 581.695 149.538 564.57 153.086 548.005C162.873 502.369 172.982 455.174 172.827 408.491C172.708 373.479 162.671 342.254 152.026 309.194C148.919 299.548 145.716 289.568 142.798 279.565C130.011 235.657 130.57 189.736 131.106 145.327C131.213 136.372 131.32 127.107 131.32 118.008V-275.785Z" fill="black"/>
<path d="M62.1539 -275.785H64.571V118.032C64.571 129.762 64.4876 141.695 64.4162 153.235C64.1185 197.262 63.809 242.778 67.893 287.329C68.8217 297.535 69.8457 307.884 70.822 317.888C74.6203 356.532 78.5376 396.487 78.5376 436.358C78.5376 480.898 74.7036 525.854 71.0006 569.321C69.9528 581.635 68.8693 594.378 67.8811 606.93C64.1066 655.09 64.2971 704.167 64.4757 751.636C64.5115 762.08 64.5591 772.536 64.5591 782.98V1176.8H62.142V782.98C62.142 772.536 62.1063 762.092 62.0587 751.636C61.8801 704.119 61.6896 654.995 65.464 606.739C66.4523 594.187 67.5358 581.445 68.5836 569.119C72.2865 525.699 76.1086 480.802 76.1086 436.37C76.1086 396.618 72.1913 356.723 68.405 318.138C67.4167 308.134 66.4046 297.786 65.464 287.568C61.3681 242.897 61.6777 197.322 61.9753 153.235C62.0587 141.695 62.1301 129.762 62.1301 118.044V-275.785H62.1539Z" fill="black"/>
<path d="M992.949 -57.4108C1019.83 -57.4108 1046.92 -52.6473 1075.97 -40.9288C1085.05 -37.2728 1094.12 -33.2237 1102.9 -29.3057C1118.08 -22.5414 1133.77 -15.539 1149.89 -10.3586C1178.87 -1.04576 1206.35 -0.307407 1239.26 -0.307407H1446.51V2.11011H1239.26C1206.14 2.11011 1178.47 1.35986 1149.15 -8.06013C1132.91 -13.2762 1117.16 -20.3025 1101.92 -27.1025C1093.17 -31.0087 1084.11 -35.0458 1075.07 -38.69C1015.08 -62.8889 963.456 -57.1131 904.411 -41.0003C889.099 -36.8203 873.477 -32.0448 858.368 -27.4241C813.753 -13.7764 767.615 0.347591 720.464 1.96721C646.297 4.52763 570.594 3.694 497.392 2.89611C461.493 2.50311 424.368 2.09821 387.945 2.09821H-5.78564V-0.319309H387.957C424.392 -0.319309 461.517 0.0855942 497.428 0.478588C570.606 1.27649 646.285 2.11012 720.393 -0.450306C767.222 -2.06992 813.205 -16.1344 857.665 -29.7463C872.787 -34.367 888.432 -39.1544 903.78 -43.3464C934.773 -51.8017 963.742 -57.4227 992.949 -57.4227V-57.4108Z" fill="black"/>
<path d="M981.971 32.5375C1011.4 32.5375 1039.36 35.9434 1067.65 42.7791C1128.86 57.5582 1180.37 68.8598 1239.26 68.8598H1446.51V71.2773H1239.26C1180.11 71.2773 1128.46 59.94 1067.08 45.1371C1013.01 32.0849 960.158 31.6205 895.695 43.6247C881.384 46.2923 866.834 49.2934 852.76 52.2111C809.717 61.107 765.21 70.3126 720.417 71.2177C558.807 74.5046 394.256 73.409 235.111 72.3491C156.122 71.8251 74.4539 71.2773 -5.79736 71.2773V68.8598C74.4658 68.8598 156.146 69.4076 235.135 69.9316C394.256 70.9915 558.795 72.0871 720.369 68.8002C764.936 67.8951 809.336 58.7133 852.272 49.8412C866.357 46.9354 880.907 43.9224 895.255 41.2548C926.367 35.4551 954.8 32.5613 981.971 32.5613V32.5375Z" fill="black"/>
<path d="M989.794 126.559C1012.44 126.559 1035.15 127.297 1057.82 129.167C1170.91 138.479 1285.83 138.277 1396.97 138.075C1413.47 138.051 1429.98 138.015 1446.51 138.015V140.433C1429.98 140.433 1413.48 140.456 1396.98 140.492C1285.79 140.695 1170.81 140.897 1057.63 131.572C990.27 126.023 922.521 130.441 856.998 134.716C812.324 137.634 766.138 140.635 720.333 140.492C557.009 139.968 390.946 140.123 230.348 140.29C152.955 140.361 72.9296 140.444 -5.78564 140.444V138.027C72.9296 138.027 152.955 137.944 230.348 137.872C390.946 137.717 557.009 137.551 720.345 138.075C766.079 138.229 812.217 135.216 856.844 132.311C900.422 129.464 945.001 126.571 989.806 126.571L989.794 126.559Z" fill="black"/>
<path d="M-5.78564 207.194C316.946 207.313 645.083 207.277 962.42 207.23C1123.79 207.206 1285.15 207.194 1446.52 207.194V209.612C1285.15 209.612 1123.79 209.635 962.42 209.647C645.083 209.683 316.946 209.731 -5.78564 209.612V207.194Z" fill="black"/>
<path d="M238.802 262.452C288.227 262.452 336.354 267.096 386.898 271.967L391.934 272.455C470.245 280.005 551.127 278.66 629.342 277.362C659.24 276.861 690.162 276.349 720.369 276.349H1446.52V278.767H720.369C690.186 278.767 659.276 279.279 629.39 279.779C551.103 281.077 470.149 282.411 391.708 274.861L386.672 274.372C328.067 268.716 272.7 263.381 214.87 265.238C182.936 266.274 150.585 269.085 119.306 271.812C78.383 275.373 36.0546 279.076 -5.82129 278.803V276.385C35.9594 276.659 78.2401 272.967 119.104 269.406C150.419 266.679 182.805 263.857 214.798 262.821C222.847 262.559 230.848 262.44 238.814 262.44L238.802 262.452Z" fill="black"/>
<path d="M267.271 304.657C310.921 304.657 349.249 316.447 392.506 329.749C395.411 330.642 398.34 331.547 401.293 332.441C446.562 346.291 491.522 345.969 539.137 345.636C546.305 345.588 553.496 345.528 560.7 345.528H1446.51V347.946H560.7C553.496 347.946 546.317 347.994 539.149 348.053C491.355 348.399 446.205 348.72 400.59 334.751C397.638 333.846 394.72 332.953 391.803 332.059C340.116 316.161 295.466 302.442 240.493 308.575C204.868 312.553 169.16 319.841 134.63 326.879C89.0156 336.18 41.8532 345.802 -5.71413 347.934L-5.82129 345.517C41.5555 343.397 88.6227 333.798 134.142 324.509C168.731 317.459 204.487 310.159 240.219 306.169C249.506 305.133 258.496 304.657 267.271 304.657Z" fill="black"/>
<path d="M290.751 351.161C332.639 351.161 362.62 368.12 401.448 390.092C403.889 391.473 406.353 392.867 408.866 394.284C448.479 416.601 490.986 415.827 535.982 415.005C544.078 414.862 552.449 414.708 560.688 414.708H1446.5V417.125H560.7C552.484 417.125 544.126 417.28 536.041 417.423C492.701 418.209 447.872 419.031 407.687 396.392C405.174 394.974 402.698 393.581 400.257 392.2C353.416 365.702 319.577 346.565 261.949 356.068C223.228 362.463 184.805 373.514 147.656 384.209C98.1242 398.452 46.9134 413.195 -5.66661 417.089L-5.84521 414.672C46.4967 410.79 97.5884 396.094 146.989 381.887C184.21 371.18 222.704 360.105 261.556 353.686C271.986 351.959 281.654 351.161 290.751 351.161Z" fill="black"/>
<path d="M290.751 420.329C332.639 420.329 362.62 437.287 401.448 459.259C403.889 460.64 406.353 462.034 408.866 463.451C448.479 485.768 490.986 484.994 535.982 484.172C544.078 484.03 552.449 483.875 560.688 483.875H1446.5V486.292H560.7C552.484 486.292 544.126 486.447 536.041 486.59C492.689 487.376 447.872 488.198 407.699 465.559C405.186 464.142 402.71 462.748 400.281 461.367C353.44 434.869 319.601 415.72 261.973 425.235C223.252 431.63 184.829 442.682 147.68 453.376C98.1481 467.631 46.9373 482.362 -5.64269 486.257L-5.82129 483.839C46.5206 479.957 97.6004 465.261 147.013 451.054C184.234 440.348 222.728 429.272 261.58 422.853C272.01 421.127 281.678 420.329 290.775 420.329H290.751Z" fill="black"/>
<path d="M267.271 512.17C310.921 512.17 349.261 523.96 392.518 537.263C395.423 538.156 398.352 539.061 401.293 539.954C446.562 553.804 491.522 553.483 539.125 553.149C546.293 553.102 553.484 553.042 560.7 553.042H1446.51V555.46H560.7C553.496 555.46 546.317 555.507 539.149 555.567C491.355 555.9 446.205 556.234 400.59 542.264C397.65 541.359 394.72 540.466 391.815 539.573C340.128 523.675 295.478 509.955 240.493 516.089C204.868 520.066 169.16 527.354 134.63 534.393C89.0156 543.694 41.8532 553.316 -5.71413 555.448L-5.82129 553.03C41.5555 550.91 88.6227 541.312 134.154 532.023C168.743 524.973 204.499 517.672 240.231 513.683C249.518 512.647 258.508 512.17 267.283 512.17H267.271Z" fill="black"/>
<path d="M238.802 608.3C288.227 608.3 336.342 612.944 386.886 617.815L391.934 618.303C470.245 625.853 551.127 624.508 629.342 623.21C659.24 622.709 690.162 622.197 720.369 622.197H1446.52V624.615H720.369C690.186 624.615 659.276 625.127 629.39 625.615C551.103 626.913 470.161 628.247 391.708 620.697L386.66 620.209C328.055 614.552 272.689 609.217 214.87 611.074C182.936 612.11 150.585 614.921 119.306 617.648C78.3949 621.209 36.1022 624.901 -5.82129 624.639V622.221C35.9594 622.483 78.2401 618.803 119.092 615.242C150.407 612.515 182.793 609.693 214.786 608.657C222.835 608.395 230.836 608.276 238.802 608.276V608.3Z" fill="black"/>
<path d="M1446.51 691.388V693.806C1284.96 693.806 1123.41 693.83 961.861 693.841C644.702 693.877 316.755 693.925 -5.79736 693.806V691.388C316.755 691.507 644.714 691.472 961.861 691.424C1123.41 691.4 1284.96 691.388 1446.51 691.388Z" fill="black"/>
<path d="M902.923 758.019C951.716 758.019 1000.66 759.627 1048.4 765.438L1053.58 766.069C1111.39 773.108 1165.99 779.765 1223.52 777.478C1255.79 776.192 1288.43 772.667 1319.98 769.249C1361.32 764.783 1404.1 760.163 1446.55 760.52L1446.52 762.937C1404.19 762.568 1361.51 767.189 1320.23 771.655C1288.63 775.073 1255.96 778.609 1223.61 779.896C1165.86 782.182 1111.17 775.525 1053.27 768.475L1048.09 767.844C970.422 758.4 889.456 760.079 811.158 761.711C781.284 762.33 750.398 762.973 720.345 762.973H-5.78564V760.556H720.369C750.386 760.556 781.272 759.912 811.122 759.293C841.436 758.662 872.156 758.019 902.923 758.019Z" fill="black"/>
<path d="M925.902 829.389C964.325 829.389 1001.2 831.509 1037.84 846.419C1041.12 847.753 1044.36 849.087 1047.58 850.397C1095.76 870.13 1137.37 887.171 1192.95 879.502C1229.67 874.441 1266.27 865.271 1301.65 856.399C1348.54 844.645 1397.03 832.497 1446.44 829.735L1446.57 832.152C1397.38 834.891 1349.02 847.014 1302.24 858.745C1266.79 867.629 1230.13 876.811 1193.28 881.896C1137.07 889.648 1095.17 872.488 1046.66 852.635C1043.45 851.325 1040.21 849.992 1036.92 848.658C993.497 830.997 949.525 831.473 902.946 831.973C895.445 832.057 887.694 832.14 880.026 832.14H-5.78564V829.723H880.026C887.682 829.723 895.433 829.639 902.923 829.556C910.65 829.473 918.306 829.389 925.902 829.389Z" fill="black"/>
<path d="M929.927 898.056C964.861 898.056 999.605 901.808 1029.26 925.316C1035.72 930.437 1041.86 936.058 1047.82 941.512C1058.02 950.861 1068.58 960.531 1080.84 967.688C1110.23 984.849 1139.66 982.062 1167.08 976.489C1207.56 968.271 1247.37 954.338 1285.88 940.845C1337.43 922.791 1390.75 904.118 1446.37 898.937L1446.59 901.343C1391.28 906.5 1338.1 925.113 1286.68 943.12C1248.1 956.624 1208.2 970.594 1167.57 978.847C1139.68 984.515 1109.71 987.326 1079.63 969.76C1067.14 962.472 1056.5 952.718 1046.18 943.275C1040.27 937.856 1034.16 932.259 1027.76 927.197C991.806 898.687 949.799 899.747 905.328 900.879C897.029 901.093 888.456 901.307 880.026 901.307H-5.78564V898.89H880.026C888.42 898.89 896.981 898.675 905.268 898.461C913.46 898.259 921.7 898.044 929.939 898.044L929.927 898.056Z" fill="black"/>
</g>
</g>
</g>
</svg>
