<svg width="233" height="54" viewBox="0 0 233 54" fill="none" xmlns="http://www.w3.org/2000/svg">
<path d="M215.152 38.6758C214.776 38.9987 214.265 39.2542 213.619 39.4425C212.973 39.6577 212.207 39.7653 211.319 39.7653C210.216 39.7653 209.261 39.6039 208.454 39.2811C207.647 38.9852 207.109 38.5548 206.84 37.9899C206.544 37.3442 206.194 36.322 205.791 34.9231C205.414 33.5242 205.037 31.9909 204.661 30.323C204.284 28.6551 203.921 26.9603 203.571 25.2386C203.249 23.5169 202.993 21.997 202.805 20.6788C203.181 20.3022 203.679 19.9794 204.298 19.7104C204.943 19.4145 205.643 19.2665 206.396 19.2665C207.338 19.2665 208.104 19.4817 208.696 19.9121C209.315 20.3157 209.691 21.0285 209.826 22.0508C210.095 24.0953 210.324 25.7901 210.512 27.1352C210.7 28.4533 210.848 29.5428 210.956 30.4037C211.09 31.2376 211.184 31.8832 211.238 32.3406C211.319 32.771 211.386 33.1207 211.44 33.3897H211.601C211.682 32.9593 211.817 32.3406 212.005 31.5335C212.22 30.6996 212.462 29.758 212.731 28.7089C213 27.6597 213.283 26.5299 213.579 25.3193C213.875 24.0819 214.17 22.8578 214.466 21.6473C215.004 21.3514 215.529 21.1227 216.04 20.9613C216.578 20.7999 217.237 20.7192 218.017 20.7192C218.959 20.7192 219.766 20.8671 220.438 21.1631C221.111 21.459 221.541 21.9163 221.73 22.535C222.053 23.7187 222.362 24.8754 222.658 26.0053C222.954 27.1083 223.223 28.144 223.465 29.1124C223.707 30.054 223.922 30.9013 224.111 31.6546C224.299 32.3809 224.433 32.9593 224.514 33.3897H224.716C225.012 31.3183 225.294 29.1662 225.563 26.9334C225.859 24.7006 226.128 22.4274 226.37 20.1139C226.854 19.818 227.366 19.6028 227.904 19.4683C228.442 19.3338 228.98 19.2665 229.518 19.2665C230.459 19.2665 231.239 19.4683 231.858 19.8718C232.477 20.2753 232.786 20.9747 232.786 21.9701C232.786 22.4005 232.719 23.0462 232.584 23.907C232.45 24.7678 232.275 25.7363 232.06 26.8123C231.845 27.8884 231.589 29.0183 231.293 30.2019C231.024 31.3856 230.742 32.5289 230.446 33.6318C230.177 34.7348 229.908 35.7301 229.639 36.6179C229.397 37.5056 229.181 38.1916 228.993 38.6758C228.616 38.9987 228.038 39.2542 227.258 39.4425C226.478 39.6577 225.644 39.7653 224.756 39.7653C222.496 39.7653 221.165 39.2004 220.761 38.0706C220.6 37.5863 220.398 36.9811 220.156 36.2547C219.914 35.5015 219.658 34.681 219.389 33.7932C219.12 32.9055 218.865 31.9909 218.623 31.0493C218.381 30.0809 218.179 29.1528 218.017 28.265C217.829 29.2066 217.6 30.1885 217.331 31.2107C217.062 32.2061 216.78 33.188 216.484 34.1564C216.215 35.098 215.959 35.9723 215.717 36.7793C215.475 37.5594 215.287 38.1916 215.152 38.6758Z" fill="#4361EE"/>
<path d="M192.199 39.9268C190.612 39.9268 189.132 39.7115 187.76 39.2811C186.415 38.8238 185.231 38.1513 184.209 37.2635C183.214 36.3758 182.42 35.2594 181.828 33.9143C181.263 32.5692 180.981 30.9955 180.981 29.1931C180.981 27.4176 181.263 25.8977 181.828 24.6333C182.42 23.3421 183.187 22.2929 184.128 21.4859C185.07 20.6519 186.146 20.0466 187.357 19.67C188.567 19.2665 189.805 19.0647 191.069 19.0647C192.495 19.0647 193.786 19.28 194.943 19.7104C196.126 20.1408 197.135 20.7326 197.969 21.4859C198.83 22.2391 199.489 23.1403 199.946 24.1895C200.431 25.2386 200.673 26.3819 200.673 27.6194C200.673 28.534 200.417 29.2335 199.906 29.7177C199.395 30.2019 198.682 30.5113 197.767 30.6458L187.8 32.1388C188.096 33.0266 188.702 33.6991 189.616 34.1564C190.531 34.5868 191.58 34.802 192.764 34.802C193.867 34.802 194.902 34.6675 195.871 34.3985C196.866 34.1026 197.673 33.7663 198.292 33.3897C198.722 33.6587 199.086 34.0354 199.381 34.5196C199.677 35.0038 199.825 35.5149 199.825 36.053C199.825 37.2635 199.26 38.1647 198.131 38.7565C197.27 39.2139 196.301 39.5232 195.225 39.6846C194.149 39.846 193.14 39.9268 192.199 39.9268ZM191.069 24.0684C190.423 24.0684 189.858 24.176 189.374 24.3912C188.917 24.6064 188.54 24.8889 188.244 25.2386C187.948 25.5614 187.72 25.938 187.558 26.3685C187.424 26.772 187.343 27.189 187.316 27.6194L194.216 26.4895C194.136 25.9515 193.84 25.4135 193.329 24.8754C192.818 24.3374 192.064 24.0684 191.069 24.0684Z" fill="#4361EE"/>
<path d="M172.847 39.2407C172.578 39.3214 172.148 39.4021 171.556 39.4828C170.991 39.5635 170.399 39.6039 169.78 39.6039C169.189 39.6039 168.651 39.5635 168.166 39.4828C167.709 39.4021 167.319 39.2407 166.996 38.9986C166.673 38.7565 166.418 38.4337 166.229 38.0302C166.068 37.5997 165.987 37.0483 165.987 36.3757V24.2701C165.987 23.6514 166.095 23.1268 166.31 22.6964C166.552 22.2391 166.888 21.8355 167.319 21.4858C167.749 21.1361 168.274 20.8267 168.893 20.5577C169.538 20.2618 170.224 20.0063 170.951 19.791C171.677 19.5758 172.43 19.4144 173.21 19.3068C173.99 19.1723 174.771 19.1051 175.551 19.1051C176.842 19.1051 177.864 19.3606 178.617 19.8717C179.371 20.356 179.747 21.163 179.747 22.2929C179.747 22.6695 179.694 23.0461 179.586 23.4227C179.478 23.7724 179.344 24.0953 179.182 24.3912C178.617 24.3912 178.039 24.4181 177.447 24.4719C176.855 24.5257 176.277 24.6064 175.712 24.714C175.147 24.8216 174.609 24.9427 174.098 25.0772C173.614 25.1848 173.197 25.3193 172.847 25.4807V39.2407Z" fill="#4361EE"/>
<path d="M156.243 19.7506C154.172 19.7506 152.585 20.3828 151.482 21.6471C150.379 22.9115 149.827 24.7004 149.827 27.014C149.827 29.3544 150.433 31.1568 151.643 32.4211C152.881 33.6855 154.535 34.3177 156.606 34.3177C157.709 34.3177 158.637 34.1697 159.391 33.8738C160.171 33.5779 160.911 33.2416 161.61 32.865C162.067 33.2416 162.417 33.6989 162.659 34.237C162.928 34.7481 163.063 35.3534 163.063 36.0528C163.063 37.1558 162.444 38.0973 161.207 38.8775C159.996 39.6307 158.14 40.0073 155.638 40.0073C153.836 40.0073 152.141 39.7518 150.554 39.2406C148.966 38.7295 147.581 37.9494 146.397 36.9002C145.214 35.8242 144.272 34.4791 143.573 32.865C142.9 31.224 142.564 29.2737 142.564 27.014C142.564 24.9157 142.887 23.0729 143.532 21.4857C144.205 19.8716 145.106 18.5131 146.236 17.4102C147.393 16.3072 148.738 15.4733 150.271 14.9083C151.805 14.3434 153.446 14.061 155.194 14.061C157.669 14.061 159.579 14.4645 160.924 15.2715C162.296 16.0786 162.982 17.1143 162.982 18.3786C162.982 19.0781 162.807 19.6833 162.457 20.1945C162.108 20.7056 161.704 21.1091 161.247 21.405C160.547 20.9477 159.794 20.5576 158.987 20.2348C158.207 19.912 157.292 19.7506 156.243 19.7506Z" fill="#4361EE"/>
<path d="M85.3462 37.4052C85.2117 38.6696 84.8351 39.638 84.2164 40.3106C83.6245 40.9831 82.7503 41.3194 81.5935 41.3194C80.7327 41.3194 79.966 41.1176 79.2934 40.7141C78.6209 40.2837 77.8946 39.5708 77.1144 38.5754L73.1196 33.5718V40.9159C72.8237 40.9697 72.3798 41.0369 71.788 41.1176C71.223 41.2252 70.6447 41.279 70.0528 41.279C69.461 41.279 68.923 41.2387 68.4388 41.158C67.9814 41.0773 67.5914 40.9159 67.2686 40.6737C66.9457 40.4316 66.6902 40.1088 66.5019 39.7053C66.3405 39.2749 66.2598 38.7234 66.2598 38.0509V14.687C66.5557 14.6063 66.9861 14.5256 67.551 14.4449C68.1429 14.3373 68.7347 14.2835 69.3265 14.2835C69.9183 14.2835 70.4429 14.3239 70.9002 14.4046C71.3845 14.4853 71.788 14.6467 72.1108 14.8888C72.4336 15.1309 72.6757 15.4672 72.8371 15.8976C73.0254 16.3011 73.1196 16.8391 73.1196 17.5117V28.1646L80.0601 21.0626C81.459 21.0626 82.5754 21.372 83.4093 21.9907C84.2702 22.6095 84.7006 23.3896 84.7006 24.3312C84.7006 24.7347 84.6333 25.1113 84.4988 25.461C84.3643 25.7838 84.1491 26.1201 83.8532 26.4698C83.5842 26.8195 83.221 27.1962 82.7637 27.5997C82.3333 27.9763 81.8222 28.4202 81.2303 28.9313L78.8899 30.9489L85.3462 37.4052Z" fill="#4361EE"/>
<path d="M57.4927 26.1471C56.8202 26.1471 56.1745 26.2547 55.5558 26.47C54.964 26.6852 54.4394 27.008 53.9821 27.4384C53.5516 27.8419 53.2019 28.353 52.9329 28.9718C52.6639 29.5905 52.5294 30.3168 52.5294 31.1508C52.5294 32.8187 53.0002 34.0696 53.9417 34.9035C54.9102 35.7375 56.0804 36.1544 57.4523 36.1544C58.2594 36.1544 58.9588 36.0603 59.5506 35.872C60.1425 35.6837 60.667 35.4819 61.1244 35.2667C61.6624 35.6433 62.0659 36.0603 62.3349 36.5176C62.6039 36.948 62.7384 37.4726 62.7384 38.0913C62.7384 39.1943 62.2139 40.0551 61.1647 40.6739C60.1156 41.2657 58.6629 41.5616 56.8067 41.5616C55.1119 41.5616 53.5785 41.3195 52.2066 40.8353C50.8346 40.3242 49.651 39.6247 48.6556 38.737C47.6872 37.8223 46.9339 36.7328 46.3959 35.4685C45.8579 34.2041 45.5889 32.8052 45.5889 31.2718C45.5889 29.4964 45.8713 27.9495 46.4363 26.6314C47.0281 25.2863 47.8217 24.1833 48.817 23.3225C49.8124 22.4616 50.9557 21.816 52.2469 21.3856C53.5651 20.9552 54.9505 20.74 56.4032 20.74C58.3401 20.74 59.8331 21.0897 60.8822 21.7891C61.9314 22.4885 62.456 23.3897 62.456 24.4927C62.456 25.0038 62.3349 25.4881 62.0928 25.9454C61.8507 26.3758 61.5682 26.7524 61.2454 27.0752C60.7881 26.86 60.2366 26.6583 59.591 26.47C58.9453 26.2547 58.2459 26.1471 57.4927 26.1471Z" fill="#4361EE"/>
<path d="M34.8867 15.8977C34.8867 14.8754 35.223 14.0146 35.8955 13.3151C36.5949 12.6157 37.5096 12.266 38.6394 12.266C39.7693 12.266 40.6705 12.6157 41.343 13.3151C42.0425 14.0146 42.3922 14.8754 42.3922 15.8977C42.3922 16.9199 42.0425 17.7808 41.343 18.4802C40.6705 19.1796 39.7693 19.5294 38.6394 19.5294C37.5096 19.5294 36.5949 19.1796 35.8955 18.4802C35.223 17.7808 34.8867 16.9199 34.8867 15.8977ZM42.0694 40.9159C41.7734 40.9697 41.3296 41.037 40.7377 41.1177C40.1728 41.2253 39.5944 41.2791 39.0026 41.2791C38.4108 41.2791 37.8728 41.2388 37.3885 41.158C36.9312 41.0773 36.5411 40.9159 36.2183 40.6738C35.8955 40.4317 35.64 40.1089 35.4516 39.7054C35.2902 39.275 35.2095 38.7235 35.2095 38.0509V21.6277C35.5054 21.5739 35.9359 21.5066 36.5008 21.4259C37.0926 21.3183 37.6845 21.2645 38.2763 21.2645C38.8681 21.2645 39.3927 21.3048 39.85 21.3855C40.3342 21.4662 40.7377 21.6277 41.0606 21.8698C41.3834 22.1119 41.6255 22.4482 41.7869 22.8786C41.9752 23.2821 42.0694 23.8201 42.0694 24.4927V40.9159Z" fill="#4361EE"/>
<path d="M30.7197 40.9159C30.4238 40.9697 29.9799 41.0369 29.3881 41.1176C28.8231 41.2252 28.2448 41.279 27.6529 41.279C27.0611 41.279 26.5231 41.2387 26.0389 41.158C25.5815 41.0773 25.1915 40.9159 24.8687 40.6737C24.5458 40.4316 24.2903 40.1088 24.102 39.7053C23.9406 39.2749 23.8599 38.7234 23.8599 38.0509V14.6467C24.1558 14.5929 24.5862 14.5256 25.1511 14.4449C25.743 14.3373 26.3348 14.2835 26.9266 14.2835C27.5184 14.2835 28.043 14.3239 28.5003 14.4046C28.9846 14.4853 29.3881 14.6467 29.7109 14.8888C30.0337 15.1309 30.2758 15.4672 30.4372 15.8976C30.6255 16.3011 30.7197 16.8391 30.7197 17.5117V40.9159Z" fill="#4361EE"/>
<path d="M13.6793 21.4258C11.6079 21.4258 10.0207 22.058 8.91777 23.3224C7.81482 24.5868 7.26334 26.3757 7.26334 28.6892C7.26334 31.0296 7.86862 32.832 9.07918 34.0964C10.3166 35.3608 11.9711 35.9929 14.0425 35.9929C15.1454 35.9929 16.0735 35.845 16.8267 35.5491C17.6069 35.2531 18.3467 34.9169 19.0461 34.5403C19.5034 34.9169 19.8531 35.3742 20.0953 35.9122C20.3643 36.4234 20.4988 37.0286 20.4988 37.7281C20.4988 38.831 19.88 39.7726 18.6426 40.5527C17.432 41.306 15.5758 41.6826 13.074 41.6826C11.2716 41.6826 9.57685 41.427 7.98968 40.9159C6.4025 40.4048 5.01709 39.6246 3.83343 38.5755C2.64978 37.4994 1.70823 36.1543 1.0088 34.5403C0.336266 32.8993 0 30.9489 0 28.6892C0 26.5909 0.322815 24.7482 0.968446 23.161C1.64098 21.5469 2.54217 20.1884 3.67202 19.0854C4.82878 17.9825 6.17384 17.1485 7.70722 16.5836C9.24059 16.0187 10.8816 15.7362 12.6301 15.7362C15.1051 15.7362 17.0151 16.1397 18.3601 16.9468C19.7321 17.7538 20.4181 18.7895 20.4181 20.0539C20.4181 20.7533 20.2432 21.3586 19.8935 21.8697C19.5438 22.3808 19.1403 22.7844 18.6829 23.0803C17.9835 22.623 17.2303 22.2329 16.4232 21.9101C15.6431 21.5873 14.7284 21.4258 13.6793 21.4258Z" fill="#4361EE"/>
<g clip-path="url(#clip0_15_177)">
<path d="M113.855 16.3543C111.027 16.3543 108.61 17.3572 106.604 19.3886C104.598 21.42 103.57 23.8115 103.57 26.64C103.57 28.5686 104.058 30.3429 105.01 31.9628C105.961 33.5828 107.324 34.8428 109.021 35.7685C109.715 36.1028 110.178 36.6171 110.461 37.2857C110.744 37.9542 110.718 38.6228 110.435 39.3171C110.127 39.9085 109.69 40.3714 109.073 40.6542C108.481 40.9628 107.864 40.9628 107.273 40.6542C104.573 39.3685 102.413 37.4657 100.818 34.9457C99.2242 32.4257 98.4014 29.6486 98.4014 26.64C98.4014 22.3457 99.8928 18.72 102.901 15.7115C105.91 12.7029 109.535 11.2115 113.83 11.2115C116.864 11.2115 119.667 12.0087 122.212 13.6286C124.758 15.2486 126.661 17.4343 127.895 20.2115C128.152 20.8029 128.152 21.42 127.869 22.0115C127.587 22.6029 127.149 23.04 126.558 23.2972C125.864 23.6057 125.195 23.6057 124.501 23.2972C123.807 22.9886 123.292 22.5 122.958 21.8315C122.058 20.1086 120.798 18.7715 119.152 17.8201C117.507 16.8686 115.758 16.3801 113.83 16.3801L113.855 16.3543Z" fill="#4361EE"/>
<path d="M113.855 6.06868C108.121 6.06868 103.261 8.07439 99.2497 12.0344C95.264 16.0201 93.2841 20.88 93.2841 26.64C93.2841 32.04 95.0583 36.6685 98.6068 40.5257C102.155 44.3828 106.63 46.5685 111.978 47.0828C112.698 47.1599 113.341 47.4942 113.881 48.0599C114.421 48.6256 114.652 49.2685 114.627 49.9885C114.575 50.7085 114.318 51.3256 113.829 51.7885C113.341 52.2513 112.724 52.4827 112.004 52.4313C108.661 52.2256 105.55 51.377 102.644 49.9113C99.7382 48.4456 97.2183 46.5685 95.0583 44.2285C92.8983 41.8885 91.2012 39.2142 89.9927 36.2057C88.7584 33.1971 88.167 30.0086 88.167 26.6657C88.167 23.1172 88.8356 19.7743 90.1984 16.6372C91.5612 13.5001 93.3869 10.8001 95.7012 8.48581C98.0154 6.17154 100.741 4.34583 103.852 2.98298C106.99 1.64584 110.332 0.951561 113.881 0.951561C120.618 0.951561 126.481 3.24012 131.469 7.81724C136.458 12.3944 139.183 18.0515 139.672 24.7886C139.749 25.4829 139.543 26.0743 139.055 26.5629C138.566 27.0514 137.949 27.3343 137.229 27.36C136.509 27.4114 135.841 27.1543 135.275 26.6657C134.709 26.1514 134.375 25.5343 134.272 24.7886C133.629 19.6458 131.392 15.2486 127.561 11.5715C123.729 7.9201 119.178 6.06868 113.907 6.06868H113.855Z" fill="#43A8EE"/>
<path d="M133.269 51.0685L124.784 42.6599L122.855 48.4971C122.649 49.0885 122.238 49.397 121.621 49.3713C121.029 49.3713 120.618 49.0371 120.412 48.4456L114.55 28.9543C114.37 28.4914 114.498 28.0543 114.858 27.6686C115.244 27.2829 115.681 27.18 116.144 27.36L135.635 33.2228C136.226 33.4286 136.535 33.84 136.561 34.4314C136.561 35.0228 136.303 35.4343 135.686 35.6657L129.849 37.5942L138.335 46.0799C139.055 46.7999 139.441 47.6485 139.441 48.5999C139.441 49.5513 139.081 50.3742 138.335 51.1199C137.589 51.8656 136.766 52.1999 135.789 52.1999C134.812 52.1999 133.989 51.8399 133.244 51.1199L133.269 51.0685Z" fill="#43A8EE"/>
</g>
<defs>
<clipPath id="clip0_15_177">
<rect width="53.9992" height="53.9997" fill="white" transform="translate(86.9072 0.000137329)"/>
</clipPath>
</defs>
</svg>
